<svg id="Layer_1" data-name="Layer 1" xmlns="http://www.w3.org/2000/svg" viewBox="0 0 293.76 46.34"><defs><style>.cls-1{fill:#fff;}</style></defs><title>CA-full-RGB</title><path id="CivicActions" class="cls-1" d="M28.58,14.76H24.84a1.51,1.51,0,0,1-1.71-1.71V10.52a4.15,4.15,0,0,0-1.14-3,3.8,3.8,0,0,0-2.73-1.27H11A3.51,3.51,0,0,0,8.3,7.48a4.1,4.1,0,0,0-1.2,3V35.8a4.19,4.19,0,0,0,1.14,3A3.78,3.78,0,0,0,11,40h8.3a3.5,3.5,0,0,0,2.66-1.2,4.1,4.1,0,0,0,1.21-3V33.2a1.49,1.49,0,0,1,1.71-1.65h3.67a1.49,1.49,0,0,1,1.71,1.65v2.6a10,10,0,0,1-3.17,7.54,11,11,0,0,1-7.79,3H11a10.94,10.94,0,0,1-7.73-3A9.8,9.8,0,0,1,0,35.8V10.52A10,10,0,0,1,3.17,3,11.19,11.19,0,0,1,11,0h8.24a10.93,10.93,0,0,1,7.79,3,9.76,9.76,0,0,1,3.24,7.54v2.6A1.49,1.49,0,0,1,28.58,14.76ZM39.72,9.27H36a1.49,1.49,0,0,1-1.71-1.65v-3A1.49,1.49,0,0,1,36,3h3.74a1.49,1.49,0,0,1,1.71,1.65v3A1.49,1.49,0,0,1,39.72,9.27Zm0,37H36a1.49,1.49,0,0,1-1.71-1.64V14.89A1.49,1.49,0,0,1,36,13.24h3.74a1.49,1.49,0,0,1,1.71,1.65V44.67A1.49,1.49,0,0,1,39.72,46.31ZM63.29,45a1.74,1.74,0,0,1-1.84,1.33H56.82A1.8,1.8,0,0,1,54.92,45l-9.56-29.9a.85.85,0,0,1-.07-.44c0-1,.51-1.46,1.59-1.46h3.54a1.72,1.72,0,0,1,1.84,1.33l6.85,21.35L66,14.51a1.84,1.84,0,0,1,1.9-1.33h3.48c1.08,0,1.59.51,1.59,1.46a.85.85,0,0,1-.07.44ZM82.12,9.27H78.38a1.49,1.49,0,0,1-1.71-1.65v-3A1.49,1.49,0,0,1,78.38,3h3.74a1.49,1.49,0,0,1,1.71,1.65v3A1.49,1.49,0,0,1,82.12,9.27Zm0,37H78.38a1.49,1.49,0,0,1-1.71-1.64V14.89a1.49,1.49,0,0,1,1.71-1.65h3.74a1.49,1.49,0,0,1,1.71,1.65V44.67A1.49,1.49,0,0,1,82.12,46.31Zm27.7-26.48a1.47,1.47,0,0,1-1.52.44,37.69,37.69,0,0,0-9-.88,3.5,3.5,0,0,0-2.66,1.2,4.07,4.07,0,0,0-1.2,3V36a4.1,4.1,0,0,0,1.14,2.91,3.57,3.57,0,0,0,2.72,1.27,37.07,37.07,0,0,0,8.94-.89,1.45,1.45,0,0,1,1.52.38,1.93,1.93,0,0,1,.57,1.21v2.59q0,2.85-11,2.85a10.93,10.93,0,0,1-7.79-2.91A9.6,9.6,0,0,1,88.28,36V23.57a9.63,9.63,0,0,1,3.17-7.35,11.24,11.24,0,0,1,7.85-3q11,0,11,2.85v2.6A1.82,1.82,0,0,1,109.82,19.83Zm40.89,25c0,1-.5,1.45-1.58,1.45h-3.87a1.8,1.8,0,0,1-1.9-1.33l-3.54-11.27H125.31L121.76,45a1.74,1.74,0,0,1-1.84,1.33h-3.86c-1.08,0-1.59-.5-1.59-1.45a1,1,0,0,1,.06-.45L128.09,1.33A1.8,1.8,0,0,1,130,0h5.2a1.8,1.8,0,0,1,1.9,1.33l13.5,43.08A1,1,0,0,1,150.71,44.86ZM132.59,10.58l-5.26,16.85h10.52Zm41.22,9.25a1.46,1.46,0,0,1-1.52.44,37.69,37.69,0,0,0-9-.88,3.5,3.5,0,0,0-2.66,1.2,4.07,4.07,0,0,0-1.2,3V36a4.1,4.1,0,0,0,1.14,2.91,3.57,3.57,0,0,0,2.72,1.27,37.07,37.07,0,0,0,8.94-.89,1.45,1.45,0,0,1,1.52.38,1.93,1.93,0,0,1,.57,1.21v2.59q0,2.85-11,2.85a10.93,10.93,0,0,1-7.79-2.91A9.6,9.6,0,0,1,152.27,36V23.57a9.63,9.63,0,0,1,3.17-7.35,11.24,11.24,0,0,1,7.85-3q11,0,11,2.85v2.6A1.82,1.82,0,0,1,173.81,19.83ZM192.5,46.12l-2.66.19A9.87,9.87,0,0,1,182,43.53a10.26,10.26,0,0,1-3.23-7.67V6.59c0-.89.76-1.52,2.22-1.84l3-.38a1.57,1.57,0,0,1,1.33.38A1.8,1.8,0,0,1,185.91,6v7.35h6.53A1.49,1.49,0,0,1,194.15,15v2.91a1.49,1.49,0,0,1-1.71,1.65h-6.53V35.86a4.19,4.19,0,0,0,1.14,3,3.6,3.6,0,0,0,2.73,1.27h2.66a1.49,1.49,0,0,1,1.71,1.64v2.73A1.53,1.53,0,0,1,192.5,46.12ZM204,9.27h-4.31A1.49,1.49,0,0,1,198,7.62v-3A1.49,1.49,0,0,1,199.69,3H204a1.49,1.49,0,0,1,1.71,1.65v3A1.49,1.49,0,0,1,204,9.27Zm0,37h-3.74a1.49,1.49,0,0,1-1.71-1.64V14.89a1.49,1.49,0,0,1,1.71-1.65H204a1.49,1.49,0,0,1,1.71,1.65V44.67A1.49,1.49,0,0,1,204,46.31Zm29.93-2.91a11.18,11.18,0,0,1-7.85,2.91h-5a10.89,10.89,0,0,1-7.73-2.91A9.6,9.6,0,0,1,210.11,36V23.57a9.63,9.63,0,0,1,3.17-7.35,11.24,11.24,0,0,1,7.85-3h5a10.9,10.9,0,0,1,7.79,2.92,9.6,9.6,0,0,1,3.23,7.41V36A9.76,9.76,0,0,1,233.93,43.4Zm-4-19.83a4.14,4.14,0,0,0-1.14-2.92,3.78,3.78,0,0,0-2.72-1.26h-5a3.53,3.53,0,0,0-2.72,1.2,4.27,4.27,0,0,0-1.14,3L217.21,36a4.1,4.1,0,0,0,1.14,2.91,3.78,3.78,0,0,0,2.78,1.27h5a3.5,3.5,0,0,0,2.66-1.2,4.09,4.09,0,0,0,1.2-3Zm36.58,22.74h-3.74a1.49,1.49,0,0,1-1.71-1.64V23.57a4.14,4.14,0,0,0-1.14-2.92,3.8,3.8,0,0,0-2.73-1.26h-4.94a3.51,3.51,0,0,0-2.72,1.2,4,4,0,0,0-1.21,3l.07,21.1c0,1.08-.57,1.64-1.78,1.64H243a1.49,1.49,0,0,1-1.71-1.64V23.57a9.75,9.75,0,0,1,3.16-7.41,11.18,11.18,0,0,1,7.86-2.92h4.94a10.91,10.91,0,0,1,7.8,2.92,9.6,9.6,0,0,1,3.23,7.41v21.1A1.49,1.49,0,0,1,266.52,46.31Zm24.07-2.72a11.6,11.6,0,0,1-7.85,2.72q-11,0-11-2.85V40.87a1.82,1.82,0,0,1,.51-1.14,1.35,1.35,0,0,1,1.52-.45,37.27,37.27,0,0,0,9,.89,4,4,0,0,0,2.72-1,3.45,3.45,0,0,0,1.14-2.66,2.73,2.73,0,0,0-1.52-2.35c-.19-.06-1.14-.5-2.85-1.26-4.05-1.78-6.4-2.92-7.1-3.36a7.58,7.58,0,0,1-3.42-6.53,9,9,0,0,1,3.17-7.16,11.82,11.82,0,0,1,7.86-2.66q10.83,0,10.83,2.85v2.6a1.82,1.82,0,0,1-.51,1.14,1.45,1.45,0,0,1-1.52.44,36.57,36.57,0,0,0-8.8-.88,4,4,0,0,0-2.79.95A3.62,3.62,0,0,0,278.87,23a2.77,2.77,0,0,0,1.46,2.34,27.25,27.25,0,0,0,2.85,1.27A49.16,49.16,0,0,1,290.34,30a7.57,7.57,0,0,1,3.42,6.52A8.81,8.81,0,0,1,290.59,43.59Z"/></svg>